<?xml version="1.0" encoding="utf-8"?>
<!-- Generator: Adobe Illustrator 25.2.1, SVG Export Plug-In . SVG Version: 6.00 Build 0)  -->
<svg version="1.1" id="Layer_1" xmlns="http://www.w3.org/2000/svg" xmlns:xlink="http://www.w3.org/1999/xlink" x="0px" y="0px"
	 viewBox="0 0 41.1 40" style="enable-background:new 0 0 41.1 40;" xml:space="preserve">
<style type="text/css">
	.st0{fill:#003366;}
</style>
<g>
	<g>
		<path class="st0" d="M18.3,21.2h-5.5c-3.6,0-6.5,2.9-6.5,6.5c0,3.6,2.9,6.5,6.5,6.5s6.5-2.9,6.5-6.5v-5.5
			C19.3,21.7,18.8,21.2,18.3,21.2z M10.8,0.7h-1c-4.7,0-8.5,3.8-8.5,8.5v1c0,4.7,3.8,8.5,8.5,8.5h8.5c0.6,0,1-0.4,1-1V9.2
			C19.3,4.5,15.5,0.7,10.8,0.7z M31.3,21.2h-8.5c-0.6,0-1,0.4-1,1v8.5c0,4.7,3.8,8.5,8.5,8.5h1c4.7,0,8.5-3.8,8.5-8.5v-1
			C39.8,25,36,21.2,31.3,21.2z"/>
		<path class="st0" d="M35.7,10.2H23.3c-0.8,0-1.5,0.7-1.5,1.5c0,0.8,0.7,1.5,1.5,1.5h12.4c0.8,0,1.5-0.7,1.5-1.5
			C37.2,10.9,36.5,10.2,35.7,10.2z M30.3,15.2h-7c-0.8,0-1.5,0.7-1.5,1.5c0,0.8,0.7,1.5,1.5,1.5h7c0.8,0,1.5-0.7,1.5-1.5
			C31.8,15.9,31.1,15.2,30.3,15.2z"/>
	</g>
</g>
</svg>
